<svg width="287" height="395" viewBox="0 0 287 395" fill="none" xmlns="http://www.w3.org/2000/svg">
<path d="M266.544 177.381C262.61 183.46 258.676 189.54 254.466 196.046C257.941 200.165 261.692 204.539 265.364 208.977C283.595 231.011 288.994 256.813 285.66 284.367C284.117 297.121 279.558 309.524 276.134 322.023C275.601 323.971 274.099 325.865 272.587 327.301C250.244 348.521 227.876 369.714 205.332 390.72C203.383 392.535 200.157 393.907 197.518 393.919C149.374 394.124 101.229 394.124 53.0843 393.991C50.8879 393.985 48.2184 392.84 46.5774 391.34C32.8055 378.758 19.1666 366.027 5.66465 353.155C4.22041 351.779 3.25584 349.239 3.18255 347.199C2.88366 338.879 3.17655 330.539 2.9179 322.217C2.80808 318.683 3.85473 316.36 6.78187 314.272C15.999 307.697 24.9677 300.774 34.1511 294.151C36.0787 292.76 38.5119 292.071 42.2398 290.818C41.2208 287.649 40.4875 284.35 39.1237 281.337C36.2132 274.906 36.2698 268.61 40.2508 262.889C42.5397 259.6 42.5259 257.08 40.3971 253.975C35.6834 247.101 36.4255 240.295 40.583 233.358C41.4829 231.857 41.8296 229.078 41.0398 227.665C36.3075 219.199 35.5207 211.11 41.5859 202.893C42.2168 202.038 41.6568 199.72 40.9197 198.534C36.1209 190.816 35.847 183.311 40.9851 175.584C41.7348 174.456 41.5594 172.019 40.843 170.724C36.4505 162.786 35.4652 155.123 41.2033 147.316C41.8961 146.373 41.5992 144.009 40.8853 142.838C35.9307 134.71 36.098 127.048 41.4226 118.999C42.7505 116.992 41.621 113.359 41.621 111.436C37.9943 109.328 34.9563 107.85 32.2365 105.922C26.2613 101.688 20.447 97.2274 14.6172 92.2554C17.615 90.3318 20.5627 89.0122 23.8349 87.8232C28.8832 91.5856 33.5559 95.287 38.3628 98.8051C39.754 99.8233 41.5174 100.911 43.1321 100.946C50.2372 101.097 57.3502 100.875 64.9212 100.851C83.9702 100.944 102.589 100.349 121.135 101.248C131.853 101.768 139.981 97.8757 148.045 91.3892C153.768 91.4818 159.113 91.2297 164.365 91.8163C170.198 92.4679 176.267 93.057 181.663 95.1477C191.519 98.9671 197.839 106.956 202.767 116.536C205.784 124.739 206.31 132.749 204.746 141.199C200.124 158.997 185.59 170.549 167.756 170.704C157.308 170.795 146.859 170.89 136.002 171.16C135.474 189.711 135.33 208.086 135.327 226.461C135.327 227.241 136.641 228.021 137.8 228.926C148.579 229.106 158.91 228.921 169.217 229.335C173.265 229.498 177.453 230.506 181.242 231.986C192.704 236.464 200.081 245.279 205.419 256.446C206.084 262.584 206.734 268.321 207.253 274.407C206.584 277.194 206.048 279.631 205.341 282.38C197.739 299.233 185.68 308.757 166.829 308.216C161.014 308.049 155.175 308.516 149.371 308.211C146.733 308.072 143.72 307.362 141.639 305.858C136.308 302.006 130.781 300.308 124.093 300.437C105.969 300.787 87.8334 300.445 69.7028 300.477C61.9037 300.491 54.105 300.751 45.9964 300.793C45.0439 300.761 44.4013 300.835 43.6017 300.778C43.0913 300.764 42.7377 300.882 42.0243 300.979C32.6004 307.727 23.5365 314.498 14.1196 321.426C13.6035 329.913 13.4352 338.243 13.3111 346.572C13.3084 346.755 13.8115 346.945 14.2306 347.442C26.7781 359.362 39.1134 371.039 51.6481 382.497C53.1582 383.877 55.747 384.722 57.8384 384.727C102.98 384.836 148.122 384.837 193.263 384.646C195.771 384.635 198.825 383.388 200.687 381.688C214.952 368.664 229.061 355.466 243.058 342.153C250.993 334.607 258.627 326.743 266.617 318.728C270.189 304.568 275.356 290.847 276.474 276.804C278.249 254.503 273.614 233.105 258.032 215.57C252.645 209.507 247.021 203.654 241.546 197.526C241.587 197.347 241.385 197.039 241.413 196.664C241.565 195.561 241.689 194.832 242.095 193.959C247.422 187.223 252.468 180.631 257.924 174.037C261.071 175.15 263.808 176.265 266.544 177.381ZM96.0968 256.84C99.2196 255.272 102.343 253.703 106.261 252.16C112.282 250.128 119.5 250.067 122.6 243.226C122.349 242.624 122.097 242.021 121.845 241.419C116.511 243.193 111.177 244.968 104.933 246.674C102.087 247.794 99.2422 248.915 95.55 249.976C94.1146 250.182 92.6107 250.181 91.2548 250.629C80.4577 254.192 69.7436 258.016 58.8881 261.387C53.4629 263.072 49.5847 266.017 47.2208 271.664C47.9409 273.157 48.661 274.65 49.4518 276.841C52.0974 278.895 54.7429 280.948 56.7233 283.292C52.5533 284.578 50.4682 287.393 49.9791 293.135C62.0598 289.703 73.3042 286.508 85.3385 283.282C92.1123 281.011 98.886 278.74 106.419 276.376C107.968 275.82 109.511 275.245 111.068 274.711C114.178 273.645 117.439 272.884 120.345 271.418C121.611 270.779 122.155 268.709 123.026 267.289C121.568 267.108 120.008 266.505 118.67 266.825C114.68 267.778 110.778 269.094 105.953 270.434C98.6002 272.366 91.2476 274.299 82.9868 276.333C76.822 277.856 70.6572 279.378 64.4403 280.093C62.7614 277.421 61.0825 274.749 60.0198 271.735C62.4784 270.499 64.9369 269.262 68.1231 267.924C71.8969 266.381 75.6707 264.837 80.2132 263.234C85.2677 261.113 90.3222 258.993 96.0968 256.84ZM107.411 227.407C111.203 226.181 115.095 225.191 118.755 223.652C121.505 222.497 123.797 220.592 120.36 217.147C116.787 218.164 113.138 219.203 108.618 220.376C90.6228 225.377 72.6032 230.292 54.6472 235.43C48.6537 237.145 46.663 242.428 49.441 248.792C51.156 252.249 52.7634 248.744 55.0891 248.663C57.1881 247.753 59.2871 246.843 62.1111 245.92C66.2093 244.234 70.353 242.65 74.3945 240.837C79.8887 238.374 85.3048 235.735 91.4872 233.317C96.5369 231.359 101.587 229.4 107.411 227.407ZM78.0771 118.556C78.0771 118.556 77.9654 118.583 77.2007 118.219C69.4847 120.222 61.7256 122.079 54.0846 124.336C52.2829 124.868 50.8792 126.748 48.726 128.453C45.5598 132.419 49.1284 134.964 50.5094 138.467C59.056 135.187 67.2375 132.048 76.1236 128.861C77.8674 128.161 79.6112 127.46 82.0911 126.733C85.5298 125.507 88.9685 124.282 93.1778 123.119C98.3418 121.34 103.506 119.561 108.67 117.781C108.634 117.286 108.598 116.791 108.561 116.295C103.5 115.893 98.4381 115.491 92.5702 115.033C88.8117 115.793 85.0533 116.553 80.5669 117.335C79.7751 117.746 78.9833 118.156 78.0771 118.556ZM104.054 202.753C109.054 201.153 114.113 199.709 119.007 197.834C120.123 197.406 120.669 195.491 121.478 194.26C120.189 193.702 118.859 192.608 117.619 192.701C115.21 192.882 112.851 193.73 109.6 194.352C106.523 194.956 103.446 195.56 99.5423 195.994C83.9902 199.951 68.4258 203.862 52.9105 207.958C51.7471 208.266 50.9339 209.9 49.4519 211.366C45.8179 215.262 48.4452 218.539 50.5257 222.424C63.9253 217.276 77.1766 212.184 91.1787 207.045C95.2187 205.579 99.2587 204.114 104.054 202.753ZM105.111 145.07C107.143 144.366 109.181 143.679 111.206 142.954C114.321 141.839 117.555 140.948 120.473 139.446C121.629 138.852 122.073 136.877 122.841 135.53C121.407 135.059 119.891 134.031 118.556 134.228C115.476 134.683 112.484 135.732 108.629 136.682C105.206 137.511 101.783 138.34 97.5854 139.184C82.9957 143.361 68.389 147.48 53.8259 151.748C48.9101 153.189 46.7848 158.023 49.0509 163.077C51.962 168.536 54.7773 163.172 58.3804 162.95C59.0514 162.641 59.7225 162.333 61.144 162.048C70.5712 158.394 79.9984 154.741 90.1719 151.066C94.9009 149.01 99.6298 146.954 105.111 145.07ZM80.9665 182.261C80.9665 182.261 81.3839 181.99 82.1305 181.963C90.628 178.377 100.073 176.813 107.773 170.077C112.027 167.84 116.336 165.698 120.492 163.292C121.432 162.747 121.837 161.281 122.488 160.239C121.358 159.924 120.082 159.102 119.123 159.379C113.553 160.985 108.057 162.85 101.757 164.778C99.1599 165.6 96.563 166.423 93.0339 167.347C80.396 171.183 67.7091 174.869 55.1649 178.989C52.867 179.744 51.1492 182.265 48.6139 184.424C45.7138 188.399 49.0832 190.932 50.4358 193.942C59.9909 190.249 69.2128 186.685 79.0151 183.151C79.5001 182.867 79.9851 182.583 80.9665 182.261ZM161.902 302.12C164.067 302.122 166.232 302.12 168.397 302.127C186.663 302.19 201.255 287.761 201.227 269.665C201.198 251.359 186.411 236.328 168.456 236.351C156.965 236.365 145.473 236.366 133.982 236.4C132.578 236.404 131.176 236.576 128.893 236.729C134.529 242.55 133.384 248.118 130.095 253.689C128.467 256.447 127.826 259.013 130.012 261.928C134.109 267.388 133.978 273.284 130.091 278.609C126.786 283.138 127.928 287.445 128.567 290.356C133.517 292.461 137.97 293.282 140.924 295.837C146.867 300.978 153.197 303.362 161.902 302.12ZM174.948 99.5163C167.987 99.2703 161.022 98.8119 154.065 98.9013C151.835 98.9299 149.346 100.002 147.455 101.297C141.939 105.072 137.572 110.972 128.362 109.364C133.814 115.249 132.5 119.967 129.404 124.914C128.601 126.198 128.618 128.945 129.476 130.16C133.791 136.271 133.984 142.147 129.446 148.091C127.504 150.636 128.094 152.827 129.673 155.336C131.47 158.189 132.815 161.325 134.688 164.985C145.267 164.985 156.742 165.143 168.211 164.939C178.688 164.752 187.246 160.23 193.288 151.754C207.149 132.307 198.824 107.925 174.948 99.5163Z" fill="#0B1D2D"/>
<path d="M23.511 87.6931C20.5633 89.0127 17.6156 90.3324 14.4823 91.9517C3.63847 86.6373 -0.619053 78.6599 0.0717887 65.8767C0.673855 54.7362 2.85752 46.1244 11.137 38.2507C22.3436 27.5934 32.4594 15.7812 42.9159 4.34806C45.7094 1.29351 48.7706 -0.0120019 52.9673 8.30912e-05C95.7904 0.123572 138.614 0.134193 181.437 0.00919259C185.882 -0.00377741 189.23 1.22675 192.651 4.13189C215.127 23.2144 237.804 42.0596 260.384 61.0197C261.759 62.174 263.358 63.4402 264.02 65.0062C272.889 85.9783 280.232 107.394 279.416 130.582C278.841 146.901 275.247 162.573 266.83 177.173C263.809 176.266 261.072 175.151 257.992 173.701C259.589 169.269 261.53 165.171 263.709 160.79C268.721 146.126 270.661 131.498 268.897 116.314C267.228 101.943 262.232 88.594 257.695 75.046C256.362 71.0655 254.333 68.1725 251.087 65.5783C241.991 58.3081 233.176 50.6875 224.199 43.2663C211.271 32.578 198.297 21.9437 184.989 11.0367C183.241 10.4974 181.848 9.9562 180.454 9.95464C139.121 9.90807 97.7884 9.9049 56.4555 9.94898C54.7183 9.95083 52.9816 10.4713 50.9478 10.9122C37.4231 25.3397 24.1953 39.6051 10.737 54.2273C10.7868 62.0926 11.0672 69.6011 11.4985 77.407C15.6033 81.034 19.5572 84.3636 23.511 87.6931Z" fill="#0F2130"/>
<path d="M185.343 11.2861C198.298 21.9435 211.271 32.5778 224.199 43.2662C233.176 50.6873 241.991 58.3079 251.087 65.5781C254.333 68.1724 256.362 71.0654 257.695 75.0458C262.232 88.5939 267.228 101.943 268.897 116.314C270.661 131.498 269.225 146.505 263.898 161.037C260.876 162.108 257.398 162.062 255.526 163.675C248.784 169.484 242.388 175.698 235.939 181.841C235.219 182.526 234.348 184.185 234.656 184.636C236.882 187.901 239.478 190.905 241.898 194.037C241.774 194.766 241.892 195.377 241.398 196.537C235.919 206.923 230.483 217.063 225.093 227.16C224.458 227.989 224.103 228.676 223.748 229.363C224.056 229.491 224.365 229.62 224.673 229.748C224.925 228.854 225.177 227.961 225.769 227.016C229.761 221.293 233.28 215.528 237.113 209.98C239.707 206.224 242.139 202.553 241.506 197.706C247.022 203.655 252.645 209.508 258.033 215.57C273.615 233.106 278.249 254.504 276.474 276.804C275.357 290.847 270.795 305.019 266.898 319.037C263.307 318.125 260.161 314.184 256.328 317.531C239.084 332.586 221.688 347.467 204.446 362.525C200.04 366.374 195.557 368.468 189.325 368.235C174.526 367.681 159.693 368.093 144.873 368.037C134.059 367.996 123.212 368.24 112.398 368.037C112.399 367.943 112.419 367.339 112.662 367.095C116.907 362.82 120.911 358.788 124.971 354.737C125.027 354.716 125.069 354.389 124.955 353.911C124.868 343.29 124.569 332.425 124.898 322.037C127.175 321.633 129.475 322.063 131.449 322.059C148.111 322.019 164.782 322.326 181.429 321.828C185.753 321.698 190.175 319.461 194.228 317.515C197.155 316.11 199.721 313.776 202.14 311.526C208.816 305.317 215.394 298.982 218.804 289.85C220.539 284.841 222.162 280.06 223.333 275.171C224.313 271.079 222.267 269.419 218.189 270.026C215.603 270.412 213.001 270.697 210.461 270.682C211.284 269.809 212.015 269.216 212.823 268.76C224.464 262.191 224.651 261.811 220.303 248.845C219.926 247.721 217.888 246.344 216.898 245.037C215.895 242.435 216.015 240.272 214.395 238.717C208.208 232.781 202.027 226.704 195.099 221.714C188.963 217.296 181.976 214.295 173.79 214.921C166.712 215.461 159.555 214.962 152.415 214.547C147.908 204.737 148.559 194.391 150.398 184.537C158.831 184.529 167.271 184.675 175.204 185.169C182.77 185.641 189.049 183.496 194.906 178.825C207.707 168.618 218.861 157.544 218.786 138.972C214.014 139.646 209.423 140.898 204.898 141.537C206.244 133.362 205.785 124.739 203.128 116.428C206.423 113.099 209.409 110.236 212.49 107.48C214.445 105.733 214.993 103.981 212.959 101.989C207.634 96.7754 202.724 91.0029 196.818 86.5569C191.59 82.6214 185.534 78.6023 179.32 77.4509C170.941 75.8984 162.058 76.9959 153.395 77.1419C152.412 77.1584 150.836 78.1921 150.582 79.0602C149.396 83.1196 148.576 87.2864 147.626 91.4148C139.982 97.8761 131.853 101.769 121.136 101.249C102.589 100.349 83.9708 100.944 64.9956 100.522C69.6961 97.1263 65.7411 94.2945 64.9035 91.354C79.1971 91.2447 93.0307 91.0166 106.857 91.2507C110.918 91.3195 113.35 89.5781 116.387 87.2577C123.635 81.7196 126.248 74.9213 124.899 66.11C124.475 63.3427 124.468 60.3934 124.916 57.6322C126.4 48.4937 123.34 41.7374 115.606 36.5443C112.863 34.7024 110.549 33.3501 107.138 33.4208C97.9767 33.6104 88.7529 34.0441 79.6563 33.2323C69.5001 32.3261 61.0612 34.6164 54.6913 42.7449C53.2956 44.5258 51.8818 46.8763 51.8086 49.0102C51.4661 58.9988 51.5893 69.0033 51.1031 79.0111C40.8886 78.3492 31.1174 77.6783 21.3594 76.5434C21.7317 68.0852 21.1753 60.1099 21.8984 52.0371C24.9036 50.9987 28.4216 49.8928 31.1076 49.082C43.7095 45.2777 51.2777 35.9627 57.972 25.1264C100.305 25.0974 142.177 25.0974 183.918 25.0974C184.395 20.4702 184.869 15.8782 185.343 11.2861ZM220.761 233.239C221.485 233.021 222.209 232.802 222.934 232.584C222.803 232.19 222.672 231.795 222.54 231.401C221.943 231.81 221.346 232.219 220.761 233.239Z" fill="#FDBC12"/>
<path d="M112.43 367.725C123.245 367.833 134.059 367.997 144.873 368.037C159.692 368.093 174.526 367.682 189.325 368.235C195.557 368.468 200.039 366.374 204.446 362.525C221.687 347.467 239.083 332.586 256.327 317.531C260.161 314.184 263.528 317.83 266.898 319.038C259.454 326.901 250.994 334.607 243.059 342.154C229.061 355.466 214.952 368.664 200.687 381.689C198.826 383.388 195.771 384.636 193.263 384.646C148.122 384.838 102.98 384.836 57.8388 384.728C55.7474 384.723 53.1586 383.878 51.6485 382.498C39.1138 371.039 25.4962 358.501 13.3984 346.538C15.4702 346.246 18.5265 347.168 20.5116 347.515C33.227 352.079 45.3463 356.977 55.5447 365.862C57.2209 367.323 60.8322 366.562 63.9064 366.9C64.96 367.174 65.6564 367.375 66.2538 367.859C66.6007 368.44 67.0456 368.995 67.4925 368.996C81.3134 369.043 95.1347 369.068 108.955 368.981C110.116 368.973 111.272 368.162 112.43 367.725Z" fill="#C68F07"/>
<path d="M219.898 289.537C216.797 298.488 208.816 305.317 202.14 311.526C199.72 313.777 197.155 316.11 194.228 317.515C190.175 319.461 185.753 321.698 181.429 321.828C164.782 322.326 148.111 322.019 131.449 322.059C129.474 322.063 127.5 322.356 125.116 322.416C121.486 319.235 118.473 315.886 114.965 313.177C112.952 311.622 110.16 310.336 107.677 310.259C97.9052 309.956 88.1063 310.472 78.3378 310.118C70.2458 309.826 62.5321 309.834 56.9674 317.007C56.8855 317.112 56.6582 317.105 56.4939 316.773C57.1107 314.364 58.2635 312.309 54.5967 311.781C53.4631 311.617 51.5765 309.785 51.6971 308.959C52.3565 304.447 49.2964 302.767 46.3066 300.899C54.1055 300.751 61.9041 300.492 69.7032 300.478C87.8339 300.446 105.97 300.787 124.093 300.438C130.781 300.309 136.308 302.006 141.639 305.859C143.721 307.363 146.734 308.072 149.372 308.211C155.175 308.517 161.014 308.049 166.83 308.216C185.68 308.757 197.934 298.394 205.898 281.537C210.517 283.878 215.812 286.88 219.898 289.537Z" fill="#F8CA4D"/>
<path d="M204.746 141.2C209.49 140.286 214.014 139.647 218.786 138.973C218.86 157.544 207.707 168.618 194.906 178.826C189.049 183.497 182.77 185.641 175.204 185.17C167.271 184.676 159.284 185.052 150.559 184.901C145.335 180.164 140.361 175.628 135.898 171.038C146.347 170.944 157.308 170.795 167.757 170.705C185.591 170.55 200.125 158.998 204.746 141.2Z" fill="#FCC941"/>
<path d="M152.398 214.537C159.52 214.577 166.712 215.461 173.79 214.921C181.976 214.295 188.963 217.296 195.099 221.714C202.027 226.704 208.208 232.78 214.395 238.717C216.016 240.272 216.454 243.058 217.145 245.795C213.038 249.555 209.222 252.8 205.406 256.045C200.081 245.28 192.704 236.465 181.243 231.987C177.453 230.506 173.266 229.498 169.217 229.336C158.91 228.922 147.67 229.067 136.898 228.537C139.894 221.863 145.954 217.308 152.398 214.537Z" fill="#C99307"/>
<path d="M147.398 91.5371C147.929 87.434 149.395 83.1192 150.582 79.0598C150.836 78.1916 152.411 77.158 153.394 77.1414C162.057 76.9954 170.94 75.898 179.319 77.4504C185.534 78.6019 191.59 82.6209 196.818 86.5564C202.724 91.0024 207.633 96.775 212.958 101.989C214.993 103.981 214.445 105.732 212.49 107.48C209.408 110.236 206.785 114.111 203.398 117.037C198.202 107.968 191.519 98.9671 181.663 95.1476C176.268 93.0569 170.199 92.4679 164.365 91.8163C159.113 91.2297 153.122 91.6297 147.398 91.5371Z" fill="#C99307"/>
<path d="M65.3984 91.5371C66.699 94.5195 71.0597 97.0875 65.8984 100.537C58.7145 100.966 50.2377 101.101 43.1326 100.944C41.518 100.909 39.7546 99.7831 38.3634 98.7298C33.5565 95.0903 28.8838 91.2613 23.8355 87.3692C19.5571 83.7896 15.6013 79.998 11.8984 76.2107C13.2277 75.8452 14.3078 76.1699 15.7269 76.173C16.523 76.1814 16.9784 76.1643 17.8257 76.1559C19.2605 76.1696 20.3033 76.1747 21.346 76.1799C31.1173 76.8739 40.8886 77.568 51.3779 78.4347C56.2107 82.7652 61.2836 87.3793 65.3984 91.5371Z" fill="#D39A07"/>
<path d="M152.415 214.548C145.989 217.693 140.803 221.903 137.35 228.452C136.641 228.022 135.327 227.242 135.327 226.461C135.33 208.086 135.474 189.711 136.002 171.16C140.873 175.574 146.144 180.289 150.898 185.038C149.821 195.038 147.907 204.737 152.415 214.548Z" fill="#F3B10B"/>
<path d="M46.4183 301.037C49.7179 303.01 52.7779 304.69 52.1186 309.202C51.998 310.028 54.2649 311.374 55.3984 311.537C59.0653 312.065 57.5322 314.607 56.8986 317.001C56.8866 317.364 56.928 317.355 56.5453 317.326C53.2773 317.651 50.809 318.487 50.2349 322.096C40.7917 322.497 31.8038 322.837 22.5434 322.909C19.8121 322.264 17.2791 322.157 14.8203 321.78C23.8842 315.01 33.0224 307.971 42.7911 301.223C43.7241 301.214 43.9523 301.183 44.1806 301.152C44.8232 301.079 45.4659 301.005 46.4183 301.037Z" fill="#F9D771"/>
<path d="M241.898 194.537C239.196 191.55 236.881 187.901 234.655 184.636C234.348 184.185 235.219 182.526 235.939 181.841C242.387 175.698 248.784 169.484 255.526 163.675C257.397 162.062 261.115 160.826 263.898 160.037C262.273 164.267 259.588 169.269 257.581 173.703C252.468 180.631 247.226 187.801 241.898 194.537Z" fill="#C99307"/>
<path d="M47.6123 271.366C49.5848 266.018 53.463 263.072 58.8882 261.388C69.7437 258.017 80.4578 254.192 91.2548 250.63C92.6107 250.182 94.1147 250.183 95.8792 250.27C95.9202 251.042 95.632 251.521 95.0297 252.152C92.0706 253.561 89.216 254.513 86.8354 256.153C84.026 258.089 79.0788 258.031 79.4445 263.295C75.6707 264.838 71.8969 266.382 67.5154 267.705C65.0308 267.73 63.1278 267.852 61.2825 268.245C56.7117 269.219 52.1673 270.317 47.6123 271.366Z" fill="#C3C7CB"/>
<path d="M90.4281 207.093C77.1767 212.185 63.9254 217.276 50.5258 222.425C48.4453 218.54 45.818 215.262 50.1858 211.18C57.2145 210.017 63.5692 209.318 69.7876 207.984C76.0276 206.645 82.1316 204.672 88.3282 203.331C89.0501 204.821 89.7391 205.957 90.4281 207.093Z" fill="#C3C7CB"/>
<path d="M49.4384 248.019C46.6634 242.429 48.6542 237.145 54.6476 235.43C72.6036 230.293 90.6232 225.378 108.941 220.655C108.342 221.672 107.419 222.411 106.089 223.126C99.2606 225.422 92.8408 227.74 86.0459 230.091C75.0753 233.475 64.4797 236.825 53.5468 240.282C56.3051 242.271 58.8458 244.102 61.3865 245.933C59.2876 246.844 57.1886 247.754 54.756 248.328C53.9765 247.062 53.5305 246.132 53.0845 245.201C51.8691 246.14 50.6538 247.08 49.4384 248.019Z" fill="#C3C7CB"/>
<path d="M205.398 255.537C209.201 251.891 212.77 248.416 216.898 245.037C218.178 245.828 219.926 247.721 220.303 248.845C224.651 261.811 224.464 262.191 212.823 268.76C212.015 269.216 211.284 269.808 210.181 270.822C209.025 272.224 208.205 273.141 207.386 274.058C206.735 268.321 206.063 261.675 205.398 255.537Z" fill="#F3B10B"/>
<path d="M14.1201 321.427C16.9318 321.645 19.1547 321.459 21.8984 322.538C23.1875 331.203 25.8604 340.113 20.8984 347.538C19.1244 347.477 16.7525 347.108 14.5288 347.09C13.812 346.946 13.3088 346.756 13.3115 346.573C13.4356 338.243 13.604 329.914 14.1201 321.427Z" fill="#F8CA4D"/>
<path d="M84.5491 283.314C73.3046 286.509 62.0602 289.704 49.9795 293.136C50.4686 287.394 52.5537 284.579 57.4131 283.163C60.2327 282.323 62.3628 281.612 64.4929 280.902C70.6577 279.379 76.8224 277.856 83.3083 276.729C83.936 279.187 84.2425 281.25 84.5491 283.314Z" fill="#C3C7CB"/>
<path d="M60.3942 162.024C59.7231 162.333 59.0521 162.641 57.8721 162.584C54.5389 162.236 51.7146 162.253 48.8902 162.271C46.7854 158.023 48.9108 153.189 53.8265 151.748C68.3896 147.48 82.9964 143.361 97.9714 139.548C97.3611 141.003 96.5605 142.467 95.3306 143.111C92.453 144.618 89.3694 145.731 85.9768 147.015C75.2555 149.762 64.9266 152.498 53.8151 155.442C56.5558 158.184 58.475 160.104 60.3942 162.024Z" fill="#C3C7CB"/>
<path d="M207.253 274.408C208.205 273.141 209.298 271.083 210.398 270.026C213.274 269.556 215.602 270.411 218.189 270.026C222.267 269.419 224.313 271.079 223.333 275.171C222.162 280.06 220.539 284.841 218.804 289.85C214.408 287.374 210.322 284.717 205.874 282.064C206.049 279.631 206.585 277.194 207.253 274.408Z" fill="#FEC52B"/>
<path d="M78.4353 183.121C69.2134 186.685 59.9916 190.25 50.4365 193.943C49.0838 190.932 45.7144 188.399 49.3138 184.189C53.2232 183.447 56.5082 183.217 59.6276 182.374C65.5868 180.763 71.4516 178.803 77.3704 177.386C77.7353 179.562 78.0853 181.342 78.4353 183.121Z" fill="#C3C7CB"/>
<path d="M60.7697 162.037C58.4753 160.105 56.5561 158.184 53.8154 155.442C64.9269 152.499 75.2558 149.762 86.0208 147.352C87.4468 148.814 88.4367 149.951 89.4266 151.088C79.9994 154.741 70.5722 158.395 60.7697 162.037Z" fill="#C3C7CB"/>
<path d="M61.7492 245.927C58.8459 244.102 56.3052 242.271 53.5469 240.282C64.4798 236.825 75.0754 233.475 86.0867 230.463C87.92 231.592 89.3375 232.382 90.755 233.172C85.3054 235.736 79.8893 238.374 74.395 240.838C70.3536 242.651 66.2098 244.235 61.7492 245.927Z" fill="#C3C7CB"/>
<path d="M88.2959 202.977C82.1323 204.672 76.0282 206.645 69.7882 207.984C63.5699 209.318 57.2152 210.017 50.4395 210.956C50.9346 209.9 51.7478 208.266 52.9113 207.959C68.4266 203.863 83.9909 199.952 99.8858 196.43C99.3989 197.282 98.566 197.692 97.7401 198.116C94.5909 199.734 91.4438 201.357 88.2959 202.977Z" fill="#C3C7CB"/>
<path d="M77.3558 176.989C71.4518 178.804 65.587 180.764 59.6278 182.375C56.5085 183.218 53.2234 183.448 49.5889 183.963C51.1501 182.266 52.8679 179.745 55.1658 178.99C67.71 174.87 80.3969 171.183 93.3394 167.689C91.318 169.959 89.2121 172.293 86.6065 173.705C83.7643 175.245 80.4592 175.931 77.3558 176.989Z" fill="#C3C7CB"/>
<path d="M76.3984 128.538C68.2169 131.677 59.0568 135.188 50.5102 138.468C49.1291 134.965 44.9952 132.203 48.898 128.037C56.0977 126.835 63.1852 126.321 69.5672 124.942C73.4034 124.113 76.2831 124.491 76.3984 128.538Z" fill="#C3C7CB"/>
<path d="M77.3701 177.386C80.4586 175.93 83.7638 175.244 86.606 173.704C89.2115 172.292 91.3174 169.958 93.805 167.638C96.5634 166.423 99.1603 165.6 102.114 165.149C101.936 169.185 104.036 170.224 107.168 170.233C100.073 176.813 90.6284 178.377 81.6388 181.821C80.9213 181.885 80.6959 182.092 80.4704 182.299C79.9854 182.583 79.5004 182.867 78.7252 183.136C78.085 181.342 77.735 179.562 77.3701 177.386Z" fill="#C3C7CB"/>
<path d="M75.7716 128.885C75.304 124.863 73.4029 124.113 69.5668 124.942C63.1847 126.321 56.6626 127.051 49.7461 128.032C50.8795 126.749 52.2832 124.869 54.0849 124.337C61.7259 122.08 69.485 120.223 77.8371 118.73C82.4467 120.593 81.268 123.919 81.3553 126.761C79.6115 127.461 77.8677 128.161 75.7716 128.885Z" fill="#C3C7CB"/>
<path d="M84.9443 283.298C84.2428 281.25 83.9362 279.187 83.7627 276.677C91.2483 274.299 98.6009 272.367 106.267 270.802C106.274 272.936 105.967 274.703 105.66 276.47C98.8867 278.741 92.1129 281.012 84.9443 283.298Z" fill="#C3C7CB"/>
<path d="M89.7995 151.077C88.4365 149.951 87.4466 148.814 86.4131 147.341C89.3696 145.732 92.4531 144.618 95.3307 143.112C96.5606 142.468 97.3612 141.004 98.359 139.541C101.784 138.34 105.207 137.511 108.887 136.95C107.55 139.779 105.955 142.339 104.359 144.899C99.6306 146.955 94.9016 149.01 89.7995 151.077Z" fill="#C3C7CB"/>
<path d="M107.471 170.155C104.036 170.224 101.937 169.185 102.504 165.075C108.058 162.851 113.554 160.986 119.124 159.379C120.083 159.103 121.359 159.924 122.489 160.239C121.838 161.281 121.433 162.748 120.493 163.292C116.337 165.699 112.028 167.84 107.471 170.155Z" fill="#C3C7CB"/>
<path d="M104.735 144.985C105.954 142.339 107.549 139.779 109.3 136.879C112.484 135.733 115.476 134.684 118.556 134.229C119.892 134.032 121.408 135.059 122.842 135.53C122.074 136.877 121.629 138.852 120.474 139.447C117.556 140.948 114.322 141.84 111.207 142.955C109.182 143.679 107.144 144.366 104.735 144.985Z" fill="#C3C7CB"/>
<path d="M88.3281 203.33C91.4431 201.356 94.5901 199.734 97.7394 198.116C98.5653 197.691 99.3982 197.281 100.298 196.514C103.446 195.56 106.523 194.956 109.887 194.686C107.121 196.877 103.547 198.264 103.299 202.649C99.2587 204.114 95.2187 205.579 90.8034 207.069C89.739 205.957 89.05 204.821 88.3281 203.33Z" fill="#C3C7CB"/>
<path d="M81.7236 126.746C81.2682 123.919 82.4469 120.592 78.2197 118.912C77.9659 118.583 78.0776 118.556 78.5175 118.719C79.7367 118.359 80.516 117.836 81.2954 117.313C85.0538 116.553 88.8123 115.793 92.9683 115.411C93.0465 118.211 92.7271 120.634 92.4078 123.056C88.9691 124.282 85.5304 125.507 81.7236 126.746Z" fill="#C3C7CB"/>
<path d="M91.1215 233.245C89.3376 232.382 87.9201 231.592 86.4619 230.43C92.841 227.74 99.2608 225.422 106.074 223.552C106.524 225.147 106.58 226.294 106.637 227.442C101.587 229.401 96.5375 231.359 91.1215 233.245Z" fill="#C3C7CB"/>
<path d="M103.677 202.701C103.547 198.264 107.122 196.877 110.323 194.66C112.852 193.73 115.211 192.882 117.62 192.701C118.86 192.608 120.19 193.702 121.479 194.26C120.67 195.491 120.124 197.406 119.007 197.834C114.113 199.709 109.054 201.153 103.677 202.701Z" fill="#C3C7CB"/>
<path d="M224.898 227.038C230.008 217.082 235.946 206.549 241.398 196.537C241.739 196.481 241.587 197.347 241.546 197.527C242.138 202.553 239.706 206.224 237.111 209.98C233.279 215.528 228.904 223.327 224.898 229.038C224.545 229.076 224.898 227.038 224.898 227.038Z" fill="#FDBC12"/>
<path d="M105.843 246.742C111.177 244.967 116.511 243.193 121.845 241.419C122.097 242.021 122.349 242.624 122.6 243.226C119.5 250.067 112.282 250.127 105.714 251.813C105.392 249.891 105.618 248.317 105.843 246.742Z" fill="#C3C7CB"/>
<path d="M106.04 276.423C105.967 274.703 106.274 272.936 106.711 270.719C110.778 269.094 114.681 267.779 118.67 266.825C120.009 266.505 121.568 267.109 123.027 267.29C122.155 268.71 121.612 270.779 120.346 271.418C117.44 272.885 114.179 273.645 111.069 274.712C109.512 275.245 107.969 275.82 106.04 276.423Z" fill="#C3C7CB"/>
<path d="M64.4665 280.498C62.3625 281.612 60.2323 282.323 57.7454 283.018C54.743 280.949 52.0975 278.896 49.7695 276.409C53.1927 274.676 56.2982 273.377 59.4037 272.078C61.0826 274.75 62.7615 277.422 64.4665 280.498Z" fill="#0B1D2D"/>
<path d="M107.024 227.424C106.58 226.294 106.523 225.147 106.481 223.574C107.419 222.41 108.342 221.672 109.376 220.588C113.138 219.203 116.787 218.164 120.36 217.147C123.797 220.592 121.505 222.497 118.756 223.653C115.095 225.191 111.203 226.181 107.024 227.424Z" fill="#C3C7CB"/>
<path d="M92.7929 123.088C92.727 120.634 93.0464 118.212 93.3713 115.439C98.4385 115.492 103.5 115.894 108.562 116.296C108.598 116.791 108.634 117.286 108.67 117.782C103.506 119.561 98.3422 121.34 92.7929 123.088Z" fill="#C3C7CB"/>
<path d="M79.8294 263.264C79.0793 258.031 84.0265 258.089 86.8359 256.153C89.2165 254.513 92.0711 253.561 95.0439 252.56C95.3736 254.168 95.3754 255.52 95.3772 256.873C90.3228 258.993 85.2683 261.114 79.8294 263.264Z" fill="#C3C7CB"/>
<path d="M95.7376 256.856C95.3758 255.52 95.3739 254.167 95.3584 252.407C95.6328 251.52 95.921 251.041 96.3035 250.298C99.2431 248.915 102.088 247.794 105.389 246.708C105.619 248.316 105.393 249.891 105.317 251.801C102.343 253.703 99.2205 255.271 95.7376 256.856Z" fill="#C3C7CB"/>
<path d="M59.7121 271.907C56.2985 273.377 53.193 274.676 49.7345 276.06C48.6614 274.651 47.9413 273.158 47.417 271.515C52.1677 270.317 56.7121 269.219 61.2829 268.245C63.1282 267.852 65.0312 267.73 67.152 267.755C64.9374 269.263 62.4788 270.499 59.7121 271.907Z" fill="#C3C7CB"/>
<path d="M48.9707 162.674C51.7144 162.254 54.5387 162.237 57.501 162.61C54.7778 163.172 51.9625 168.537 48.9707 162.674Z" fill="#C3C7CB"/>
<path d="M49.4404 248.406C50.6543 247.08 51.8696 246.141 53.0849 245.201C53.5309 246.132 53.9769 247.062 54.4242 248.354C52.7643 248.745 51.1569 252.25 49.4404 248.406Z" fill="#C3C7CB"/>
<path d="M80.931 117.324C80.5156 117.836 79.7362 118.359 78.5742 118.725C78.9834 118.157 79.7752 117.746 80.931 117.324Z" fill="#C3C7CB"/>
<path d="M80.7184 182.28C80.6956 182.092 80.9211 181.885 81.2653 181.834C81.384 181.99 80.9666 182.261 80.7184 182.28Z" fill="#C3C7CB"/>
<path d="M43.6022 300.778C43.5308 300.941 43.3026 300.971 42.7295 301.002C42.7382 300.883 43.0917 300.765 43.6022 300.778Z" fill="#F8CA4D"/>
<path d="M185.898 11.5376C185.779 16.3792 184.305 20.4706 183.828 25.0978C142.115 25.0978 99.7297 25.9125 57.3941 25.5376C54.8357 20.6302 52.965 15.0701 50.8984 10.5376C52.6342 10.2587 54.7152 9.95106 56.4513 9.94921C97.7563 9.90513 139.061 9.9083 180.367 9.95487C181.759 9.95643 184.152 10.9983 185.898 11.5376Z" fill="#FDCD4D"/>
<path d="M50.8984 10.5371C53.2632 14.9076 56.2991 20.1007 58.3984 25.0371C52.1962 36.2484 43.7096 45.2777 31.1078 49.082C28.4218 49.8929 25.8191 50.9799 22.4067 52.0071C18.0795 52.6731 14.4543 53.4384 10.8984 54.0371C24.1262 39.7716 37.3738 24.9646 50.8984 10.5371Z" fill="#F9D771"/>
<path d="M10.8984 53.9925C14.6848 53.0353 18.0795 52.6257 22.0426 52.0371C22.0909 60.058 21.7319 68.0677 21.3596 76.5422C20.3036 77.0021 19.2608 76.9971 17.6681 76.7704C16.5409 76.691 15.9636 76.8333 15.3864 76.9756C14.3082 76.9974 13.2299 77.0193 11.7498 77.0752C11.0675 69.5863 10.9482 61.873 10.8984 53.9925Z" fill="#FCC941"/>
<path d="M64.9036 91.3543C60.3258 87.3927 56.211 83.3735 51.8212 79.1784C51.5895 69.0037 51.4662 58.9991 51.8087 49.0105C51.8819 46.8767 53.2958 44.5262 54.6914 42.7452C61.0614 34.6167 69.5002 32.3264 79.6565 33.2326C88.753 34.0444 97.9769 33.6108 107.138 33.4211C110.549 33.3504 112.863 34.7027 115.606 36.5446C123.34 41.7377 126.4 48.4941 124.916 57.6326C124.468 60.3937 124.475 63.343 124.899 66.1103C126.248 74.9216 123.635 81.7199 116.387 87.258C113.35 89.5784 110.918 91.3198 106.857 91.251C93.0309 91.017 79.1972 91.2451 64.9036 91.3543Z" fill="#081B2A"/>
<path d="M56.4818 317.136C56.6581 317.105 56.8854 317.113 56.9674 317.007C62.532 309.835 70.2457 309.826 78.3378 310.119C88.1062 310.472 97.9051 309.956 107.677 310.259C110.16 310.336 112.952 311.622 114.965 313.177C118.473 315.886 122.07 319.113 125.398 322.538C125.479 333.025 125.422 343.356 125.398 354.038C125.402 354.576 124.914 354.757 124.914 354.757C120.91 358.789 117.114 363.277 112.398 367.538C96.644 367.856 81.4405 367.949 66.3984 368.038C65.702 367.837 64.1223 367.093 62.8984 366.538C59.6768 363.497 58.0649 360.567 55.0557 358.299C52.1872 356.137 51.362 353.729 51.4305 350.29C51.6183 340.862 51.1853 331.682 51.3984 322.038C53.1696 320.339 54.9727 318.598 56.5064 317.112C56.5064 317.112 56.465 317.121 56.4818 317.136Z" fill="#081B2B"/>
<path d="M66.2539 367.859C81.395 367.487 96.4371 367.398 111.949 367.324C112.419 367.339 112.899 367.943 112.898 368.038C111.739 368.57 110.116 368.974 108.955 368.981C95.1348 369.068 81.3135 369.044 67.4926 368.996C67.0457 368.995 66.6008 368.44 66.2539 367.859Z" fill="#F3B10B"/>
<path d="M220.755 232.934C221.346 232.219 221.943 231.81 222.541 231.401C222.672 231.796 222.803 232.19 222.934 232.584C222.21 232.803 221.485 233.021 220.755 232.934Z" fill="#FDBC12"/>
<path d="M225.415 227.054C225.177 227.961 224.925 228.854 224.673 229.748C224.364 229.619 224.056 229.491 223.747 229.362C224.103 228.676 224.458 227.989 225.093 227.16C225.372 227.018 225.402 227.041 225.415 227.054Z" fill="#D39A07"/>
<path d="M218.935 236.591C218.999 236.55 218.87 236.632 218.935 236.591Z" fill="#D39A07"/>
<path d="M51.4305 321.994C51.4549 331.426 51.6184 340.861 51.4306 350.289C51.3621 353.728 52.1873 356.136 55.0558 358.299C58.065 360.567 61.534 364.069 64.3984 367.037C61.8518 367.053 57.221 367.322 55.5448 365.862C45.3464 356.977 33.2271 352.078 20.5117 347.515C25.2626 339.804 22.915 330.934 21.8984 322.537C30.8739 321.763 40.3703 322.253 50.1003 321.929C51.0385 321.961 51.2345 321.977 51.4305 321.994Z" fill="#FEBF15"/>
<path d="M15.7266 77.0007C15.963 76.8339 16.5403 76.6919 17.2755 76.7628C16.9781 76.9923 16.5227 77.0089 15.7266 77.0007Z" fill="#FDBC12"/>
<path d="M51.3982 322.037C50.9647 322.233 50.3817 322.13 49.8988 322.037C49.7308 318.412 53.6304 317.362 56.8984 317.037C55.7474 318.552 53.1694 320.339 51.3982 322.037Z" fill="#F8CA4D"/>
</svg>
